HIERARCHY
ROOT Hips
{
	OFFSET 0.000000 71.427986 0.000000
	CHANNELS 6 Xposition Yposition Zposition Xrotation Yrotation Zrotation
	JOINT Pelvis
	{
		OFFSET 0.000000 0.000000 0.000000
		CHANNELS 3 Xrotation Yrotation Zrotation
		JOINT LeftUpLeg
		{
			OFFSET 6.797100 -2.508499 -1.318700
			CHANNELS 3 Xrotation Yrotation Zrotation
			JOINT LeftLeg
			{
				OFFSET 0.069008 -29.241863 0.690200
				CHANNELS 3 Xrotation Yrotation Zrotation
				JOINT LeftFoot
				{
					OFFSET -0.069008 -29.568123 -0.266800
					CHANNELS 3 Xrotation Yrotation Zrotation
					JOINT LeftToeBase
					{
						OFFSET 3.145500 -8.631000 16.059900
						CHANNELS 3 Xrotation Yrotation Zrotation
						End Site
						{
							OFFSET 0.000000 18.501587 0.000000
						}
					}
				}
			}
			JOINT Left_ShortSleeve
			{
				OFFSET 0.265923 -10.480953 1.153800
				CHANNELS 3 Xrotation Yrotation Zrotation
				End Site
				{
					OFFSET 1.725763 19.823879 0.000000
				}
			}
		}
		JOINT RightUpLeg
		{
			OFFSET -6.797100 -2.508499 -1.318700
			CHANNELS 3 Xrotation Yrotation Zrotation
			JOINT RightLeg
			{
				OFFSET -0.082453 -29.241932 0.688000
				CHANNELS 3 Xrotation Yrotation Zrotation
				JOINT RightFoot
				{
					OFFSET 0.082453 -29.568058 -0.264600
					CHANNELS 3 Xrotation Yrotation Zrotation
					JOINT RightToeBase
					{
						OFFSET -3.115300 -8.682800 16.113400
						CHANNELS 3 Xrotation Yrotation Zrotation
						End Site
						{
							OFFSET 0.000000 18.567114 0.000000
						}
					}
				}
			}
			JOINT Right_ShortSleeve
			{
				OFFSET -0.265923 -10.480953 1.153800
				CHANNELS 3 Xrotation Yrotation Zrotation
				End Site
				{
					OFFSET -1.725766 19.823910 0.000000
				}
			}
		}
	}
	JOINT Spine
	{
		OFFSET 0.000000 13.368103 0.470500
		CHANNELS 3 Xrotation Yrotation Zrotation
		JOINT Spine1
		{
			OFFSET 0.147000 13.837402 0.538800
			CHANNELS 3 Xrotation Yrotation Zrotation
			JOINT Spine2
			{
				OFFSET 0.168000 16.242897 -1.435500
				CHANNELS 3 Xrotation Yrotation Zrotation
				JOINT Neck
				{
					OFFSET 0.217200 18.631500 -1.679100
					CHANNELS 3 Xrotation Yrotation Zrotation
					JOINT Head
					{
						OFFSET 0.000000 6.599396 1.385900
						CHANNELS 3 Xrotation Yrotation Zrotation
						JOINT Hat
						{
							OFFSET -0.532200 27.220596 -10.096100
							CHANNELS 3 Xrotation Yrotation Zrotation
							End Site
							{
								OFFSET 0.000000 22.029861 0.000000
							}
						}
						JOINT HairD
						{
							OFFSET -10.777400 17.437393 -1.325900
							CHANNELS 3 Xrotation Yrotation Zrotation
							JOINT HairD1
							{
								OFFSET -3.290299 -11.051193 1.062200
								CHANNELS 3 Xrotation Yrotation Zrotation
								End Site
								{
									OFFSET 0.000000 11.579437 0.000000
								}
							}
						}
						JOINT HairB
						{
							OFFSET -10.777400 17.437393 1.467900
							CHANNELS 3 Xrotation Yrotation Zrotation
							JOINT HairB1
							{
								OFFSET -1.561200 -12.956299 3.590200
								CHANNELS 3 Xrotation Yrotation Zrotation
								End Site
								{
									OFFSET 0.000000 13.534866 0.000000
								}
							}
						}
						JOINT HairA
						{
							OFFSET 9.713100 17.437393 1.467900
							CHANNELS 3 Xrotation Yrotation Zrotation
							JOINT HairA1
							{
								OFFSET 1.561200 -12.956299 3.590200
								CHANNELS 3 Xrotation Yrotation Zrotation
								End Site
								{
									OFFSET 0.000000 13.534866 0.000000
								}
							}
						}
						JOINT HairC
						{
							OFFSET 9.713100 17.437393 -1.325900
							CHANNELS 3 Xrotation Yrotation Zrotation
							JOINT HairC1
							{
								OFFSET 3.290300 -11.051193 1.062200
								CHANNELS 3 Xrotation Yrotation Zrotation
								End Site
								{
									OFFSET 0.000000 11.579437 0.000000
								}
							}
						}
					}
				}
				JOINT LeftShoulder
				{
					OFFSET 5.101800 15.108002 -2.763700
					CHANNELS 3 Xrotation Yrotation Zrotation
					JOINT LeftArm
					{
						OFFSET 9.825497 2.506317 -1.597400
						CHANNELS 3 Xrotation Yrotation Zrotation
						JOINT LeftForeArm
						{
							OFFSET 21.966244 0.000000 0.000000
							CHANNELS 3 Xrotation Yrotation Zrotation
							JOINT LeftHand
							{
								OFFSET 33.879036 0.000000 0.000000
								CHANNELS 3 Xrotation Yrotation Zrotation
								JOINT LeftHandThumb1
								{
									OFFSET 6.715286 -2.359680 3.363841
									CHANNELS 3 Xrotation Yrotation Zrotation
									JOINT LeftHandThumb2
									{
										OFFSET 2.507072 -1.447464 1.447461
										CHANNELS 3 Xrotation Yrotation Zrotation
										JOINT LeftHandThumb3
										{
											OFFSET 2.898338 -1.673355 1.673357
											CHANNELS 3 Xrotation Yrotation Zrotation
											End Site
											{
												OFFSET -0.295959 3.727692 -0.131651
											}
										}
									}
								}
								JOINT LeftHandIndex1
								{
									OFFSET 14.190811 -0.254547 3.840278
									CHANNELS 3 Xrotation Yrotation Zrotation
									JOINT LeftHandIndex2
									{
										OFFSET 3.551727 0.000000 -0.000000
										CHANNELS 3 Xrotation Yrotation Zrotation
										JOINT LeftHandIndex3
										{
											OFFSET 2.894196 0.000000 0.000000
											CHANNELS 3 Xrotation Yrotation Zrotation
											End Site
											{
												OFFSET -1.000603 2.690872 0.366626
											}
										}
									}
								}
								JOINT LeftHandMiddle1
								{
									OFFSET 13.776489 0.000000 0.000000
									CHANNELS 3 Xrotation Yrotation Zrotation
									JOINT LeftHandMiddle2
									{
										OFFSET 3.438232 0.000000 0.000000
										CHANNELS 3 Xrotation Yrotation Zrotation
										JOINT LeftHandMiddle3
										{
											OFFSET 3.691551 0.000000 0.000000
											CHANNELS 3 Xrotation Yrotation Zrotation
											End Site
											{
												OFFSET -1.082298 3.499527 0.457670
											}
										}
									}
								}
								JOINT LeftHandRing1
								{
									OFFSET 13.966164 -0.268127 -3.067488
									CHANNELS 3 Xrotation Yrotation Zrotation
									JOINT LeftHandRing2
									{
										OFFSET 3.162567 0.000000 0.000000
										CHANNELS 3 Xrotation Yrotation Zrotation
										JOINT LeftHandRing3
										{
											OFFSET 3.324348 0.000000 0.000000
											CHANNELS 3 Xrotation Yrotation Zrotation
											End Site
											{
												OFFSET -0.861900 3.184998 0.405154
											}
										}
									}
								}
								JOINT LeftHandPinky1
								{
									OFFSET 13.131393 -0.168503 -5.746925
									CHANNELS 3 Xrotation Yrotation Zrotation
									JOINT LeftHandPinky2
									{
										OFFSET 2.849182 0.000000 0.000000
										CHANNELS 3 Xrotation Yrotation Zrotation
										JOINT LeftHandPinky3
										{
											OFFSET 2.805038 0.000000 0.000000
											CHANNELS 3 Xrotation Yrotation Zrotation
											End Site
											{
												OFFSET -0.882500 2.642609 0.325652
											}
										}
									}
								}
							}
							JOINT Left_Sleeve
							{
								OFFSET 6.592125 -0.646545 0.805568
								CHANNELS 3 Xrotation Yrotation Zrotation
								End Site
								{
									OFFSET -0.000179 20.275787 -0.000000
								}
							}
						}
					}
				}
				JOINT RightShoulder
				{
					OFFSET -5.731700 15.108002 -2.763700
					CHANNELS 3 Xrotation Yrotation Zrotation
					JOINT RightArm
					{
						OFFSET -9.825497 2.506317 -1.597400
						CHANNELS 3 Xrotation Yrotation Zrotation
						JOINT RightForeArm
						{
							OFFSET -21.966242 0.000000 0.000000
							CHANNELS 3 Xrotation Yrotation Zrotation
							JOINT RightHand
							{
								OFFSET -33.879032 0.000000 0.000000
								CHANNELS 3 Xrotation Yrotation Zrotation
								JOINT RightHandThumb1
								{
									OFFSET -6.715286 -2.359680 3.363841
									CHANNELS 3 Xrotation Yrotation Zrotation
									JOINT RightHandThumb2
									{
										OFFSET -2.507072 -1.447464 1.447461
										CHANNELS 3 Xrotation Yrotation Zrotation
										JOINT RightHandThumb3
										{
											OFFSET -2.898338 -1.673355 1.673357
											CHANNELS 3 Xrotation Yrotation Zrotation
											End Site
											{
												OFFSET 0.295959 3.727692 -0.131651
											}
										}
									}
								}
								JOINT RightHandIndex1
								{
									OFFSET -14.190811 -0.254547 3.840278
									CHANNELS 3 Xrotation Yrotation Zrotation
									JOINT RightHandIndex2
									{
										OFFSET -3.551727 0.000000 -0.000000
										CHANNELS 3 Xrotation Yrotation Zrotation
										JOINT RightHandIndex3
										{
											OFFSET -2.894196 0.000000 0.000000
											CHANNELS 3 Xrotation Yrotation Zrotation
											End Site
											{
												OFFSET 1.000603 2.690872 0.366626
											}
										}
									}
								}
								JOINT RightHandMiddle1
								{
									OFFSET -13.776489 0.000000 0.000000
									CHANNELS 3 Xrotation Yrotation Zrotation
									JOINT RightHandMiddle2
									{
										OFFSET -3.438232 0.000000 0.000000
										CHANNELS 3 Xrotation Yrotation Zrotation
										JOINT RightHandMiddle3
										{
											OFFSET -3.691551 0.000000 0.000000
											CHANNELS 3 Xrotation Yrotation Zrotation
											End Site
											{
												OFFSET 1.082298 3.499527 0.457670
											}
										}
									}
								}
								JOINT RightHandRing1
								{
									OFFSET -13.966164 -0.268127 -3.067488
									CHANNELS 3 Xrotation Yrotation Zrotation
									JOINT RightHandRing2
									{
										OFFSET -3.162567 0.000000 0.000000
										CHANNELS 3 Xrotation Yrotation Zrotation
										JOINT RightHandRing3
										{
											OFFSET -3.324348 0.000000 0.000000
											CHANNELS 3 Xrotation Yrotation Zrotation
											End Site
											{
												OFFSET 0.861900 3.184998 0.405154
											}
										}
									}
								}
								JOINT RightHandPinky1
								{
									OFFSET -13.131393 -0.168503 -5.746925
									CHANNELS 3 Xrotation Yrotation Zrotation
									JOINT RightHandPinky2
									{
										OFFSET -2.849182 0.000000 0.000000
										CHANNELS 3 Xrotation Yrotation Zrotation
										JOINT RightHandPinky3
										{
											OFFSET -2.805038 0.000000 0.000000
											CHANNELS 3 Xrotation Yrotation Zrotation
											End Site
											{
												OFFSET 0.882500 2.642609 0.325652
											}
										}
									}
								}
							}
							JOINT Right_Sleeve
							{
								OFFSET -6.592125 -0.646545 0.805568
								CHANNELS 3 Xrotation Yrotation Zrotation
								End Site
								{
									OFFSET 0.000179 20.275787 -0.000000
								}
							}
						}
					}
				}
				JOINT Bind_Right_JacketString
				{
					OFFSET -3.534800 11.969597 7.200700
					CHANNELS 3 Xrotation Yrotation Zrotation
					JOINT Bind_Right_JacketString1
					{
						OFFSET -0.319900 -6.102600 2.794100
						CHANNELS 3 Xrotation Yrotation Zrotation
						End Site
						{
							OFFSET 0.000000 6.719452 0.000000
						}
					}
				}
				JOINT Bind_Left_JacketString
				{
					OFFSET 2.904800 11.969597 7.200700
					CHANNELS 3 Xrotation Yrotation Zrotation
					JOINT Bind_Left_JacketString1
					{
						OFFSET 0.364800 -5.904503 3.186800
						CHANNELS 3 Xrotation Yrotation Zrotation
						End Site
						{
							OFFSET 0.000000 6.719513 0.000000
						}
					}
				}
				JOINT HairE
				{
					OFFSET 5.915200 17.612701 -11.592200
					CHANNELS 3 Xrotation Yrotation Zrotation
					JOINT HairE1
					{
						OFFSET 0.289200 -7.171898 -1.284500
						CHANNELS 3 Xrotation Yrotation Zrotation
						End Site
						{
							OFFSET 0.000000 7.291756 0.000000
						}
					}
				}
				JOINT HairF
				{
					OFFSET -0.864800 17.612701 -11.592200
					CHANNELS 3 Xrotation Yrotation Zrotation
					JOINT HairF1
					{
						OFFSET 0.000000 -14.087097 -2.127501
						CHANNELS 3 Xrotation Yrotation Zrotation
						End Site
						{
							OFFSET 0.000000 14.246841 0.000000
						}
					}
				}
				JOINT HairG
				{
					OFFSET -8.087700 17.612701 -11.592200
					CHANNELS 3 Xrotation Yrotation Zrotation
					JOINT HairG1
					{
						OFFSET -0.293600 -6.081398 -0.910100
						CHANNELS 3 Xrotation Yrotation Zrotation
						End Site
						{
							OFFSET 0.000000 6.156120 0.000000
						}
					}
				}
			}
		}
	}
	JOINT Pouch
	{
		OFFSET 0.000000 4.394501 10.847300
		CHANNELS 3 Xrotation Yrotation Zrotation
		End Site
		{
			OFFSET 0.000000 21.880577 0.000000
		}
	}
	JOINT Bag
	{
		OFFSET -13.229000 4.813004 -0.593300
		CHANNELS 3 Xrotation Yrotation Zrotation
		End Site
		{
			OFFSET 0.000000 21.880577 0.000000
		}
	}
	JOINT OccupyGuyFacialAnim_Joint
	{
		OFFSET 1.000000 -70.206398 -1.655000
		CHANNELS 3 Xrotation Yrotation Zrotation
		End Site
		{
			OFFSET 0.000000 21.880577 0.000000
		}
	}
}
MOTION
Frames: 5
Frame Time: 0.016667
-0.007571 70.109032 1.432391 1.892562 0.278430 -0.282202 -0.000000 -0.000000 0.000000 -4.298967 -4.455278 9.623169 13.213528 -0.143951 -1.546539 -8.656037 14.623111 -8.248864 0.000000 -0.000001 0.000000 -0.000000 0.000000 0.000001 -4.113942 -5.387007 -8.269705 14.704822 0.418283 -0.277964 -11.137277 -11.582494 7.594722 -0.000000 0.000001 0.000000 -0.000000 -0.000001 -0.000001 2.070749 0.288755 0.956352 3.430438 -0.015269 0.185037 3.430498 0.005499 0.178976 -3.527213 -0.012947 -0.020364 -2.723221 -0.263049 0.289011 0.000001 0.000000 0.000000 0.000001 0.000000 0.000000 0.000001 0.000000 0.000000 0.000001 0.000000 0.000000 0.000000 0.000000 0.000000 0.000001 0.000000 0.000000 0.000000 0.000000 0.000000 0.000001 0.000000 0.000000 0.000001 0.000000 0.000000 0.742834 8.952356 -13.053721 10.740850 -6.252036 -54.033852 0.000007 -33.005909 0.000000 3.135485 -1.542041 -4.245090 -3.935394 -5.157142 8.901483 21.369790 38.859111 0.033469 0.000005 0.000001 -0.000001 1.240179 5.550752 -31.144665 2.582837 4.855832 -55.997002 0.000000 0.000001 -0.000000 2.320323 7.123395 -41.324721 3.978843 5.544418 -71.308042 0.000000 0.000001 -0.000001 2.315928 7.119624 -41.286059 3.978851 5.544433 -71.308042 0.000001 -0.000003 -0.000002 2.340560 7.146623 -41.312140 3.983171 5.545887 -71.352732 -0.000000 -0.000000 0.000001 0.000000 0.000001 0.000001 1.078068 -8.352864 11.371666 3.407873 18.890956 61.317327 0.000007 23.538784 -0.000017 1.182678 -2.960223 -1.406659 -5.113517 0.222626 -17.981451 16.974273 -29.891271 7.722266 0.000002 0.000002 0.000002 0.293266 -3.768020 14.855197 3.775952 -4.573200 79.081310 -0.000000 -0.000002 -0.000000 1.476682 -5.897283 31.989649 4.654528 -4.657161 89.967375 -0.000001 -0.000003 0.000001 1.427411 -5.817095 32.033099 4.654590 -4.657183 89.968058 0.000000 0.000002 -0.000001 1.424025 -5.850166 32.030599 4.654595 -4.657175 89.968174 -0.000001 -0.000002 -0.000001 0.000001 0.000001 -0.000001 -0.000000 -0.000000 -0.000000 0.000000 0.000000 -0.000000 -0.000000 -0.000000 -0.000000 -0.000000 -0.000000 -0.000000 -0.000000 -0.000000 -0.000000 0.000000 0.000000 -0.000000 -0.000000 -0.000000 -0.000000 -0.000000 -0.000000 -0.000000 -0.000000 -0.000000 -0.000000 0.000000 0.000000 -0.000000 -0.000000 -0.000000 0.000000 -0.000000 -0.000000 0.000000 -0.000000 -0.000000 0.000000 
0.405872 70.057625 1.440683 1.971311 0.169628 -0.282250 -0.000000 -0.000000 0.000000 -5.173753 -4.131564 9.359837 14.630682 -0.379755 -1.654022 -9.547316 13.623580 -7.821863 -0.000000 -0.000000 -0.000000 0.000000 0.000000 -0.000001 -4.174095 -5.333583 -8.680042 14.555985 0.519618 -0.277940 -10.922105 -11.602687 7.995251 -0.000000 0.000001 -0.000000 -0.000000 0.000000 -0.000001 2.228285 0.158527 0.934435 3.366062 -0.047926 0.178463 3.366264 -0.027680 0.173012 -3.461164 -0.005422 -0.020363 -2.503165 -0.228412 0.394053 0.000000 0.000000 0.000000 0.000000 0.000000 0.000000 0.000000 0.000000 0.000000 0.000000 0.000000 0.000000 0.000000 0.000000 0.000000 0.000000 0.000000 0.000000 0.000000 0.000000 0.000000 0.000000 0.000000 0.000000 0.000000 0.000000 0.000000 0.736159 8.634892 -13.051692 10.465392 -6.468717 -54.238563 -0.000001 -32.925419 -0.000009 3.835494 -1.562231 -4.453606 -3.935394 -5.157146 8.901454 21.369780 38.859111 0.033487 0.000002 0.000001 -0.000002 1.240182 5.550753 -31.144676 2.582841 4.855832 -55.996995 0.000004 0.000001 -0.000002 2.320330 7.123389 -41.324724 3.979600 5.544680 -71.315918 0.000001 0.000000 0.000001 2.324903 7.126345 -41.393825 3.982368 5.545616 -71.344591 -0.000001 0.000000 -0.000002 2.340564 7.146614 -41.312146 3.983162 5.545889 -71.352746 0.000001 -0.000001 -0.000001 0.000000 0.000001 0.000001 1.102346 -8.042774 11.607334 3.214946 18.780589 60.984375 0.000003 23.113688 -0.000003 2.062542 -2.669417 -0.892126 -5.113510 0.222628 -17.981462 16.974268 -29.891274 7.722255 0.000002 0.000000 0.000003 0.293272 -3.768018 14.855170 3.760192 -4.570140 78.883528 0.000001 0.000000 -0.000001 1.476684 -5.897276 31.989666 4.659795 -4.657168 90.032275 0.000000 0.000000 -0.000001 1.436531 -5.825488 32.180501 4.654578 -4.657179 89.968051 -0.000001 -0.000002 -0.000000 1.432363 -5.863710 32.225498 4.654592 -4.657178 89.968167 -0.000001 -0.000001 0.000000 0.000001 0.000002 0.000000 0.000001 0.000000 0.000000 0.000001 0.000000 0.000000 0.000001 0.000000 0.000000 0.000001 0.000000 0.000000 0.000001 0.000000 0.000000 0.000001 0.000000 0.000000 0.000001 0.000000 0.000000 0.000001 0.000000 0.000000 0.000001 0.000000 0.000000 0.000001 0.000000 0.000000 -0.000000 -0.000000 0.000000 -0.000000 -0.000000 0.000000 -0.000000 -0.000000 0.000000 
0.823420 70.003700 1.428739 2.047150 0.065411 -0.280363 -0.000000 -0.000000 0.000000 -6.008231 -3.776367 9.120075 15.920218 -0.652555 -1.766749 -10.351335 12.530225 -7.391650 -0.000000 -0.000000 -0.000000 -0.000001 0.000000 -0.000000 -4.266098 -5.282690 -9.097120 14.432979 0.617895 -0.277912 -10.698591 -11.616933 8.392592 -0.000000 -0.000001 0.000000 0.000000 0.000000 0.000000 2.391727 0.028406 0.906351 3.299832 -0.080446 0.171142 3.300180 -0.060740 0.166296 -3.396152 0.002399 -0.020364 -2.286795 -0.182576 0.481419 0.000001 0.000000 0.000000 0.000001 0.000000 0.000000 0.000001 0.000000 0.000000 0.000001 0.000000 -0.000000 0.000000 0.000000 0.000000 0.000001 0.000000 -0.000000 0.000000 0.000000 0.000000 0.000001 0.000000 0.000000 0.000001 0.000000 0.000000 0.729728 8.312047 -13.050096 10.192958 -6.689425 -54.453045 0.000000 -32.826552 -0.000015 4.533532 -1.587739 -4.670876 -3.935395 -5.157146 8.901466 21.369787 38.859115 0.033474 0.000001 0.000001 -0.000003 1.240180 5.550758 -31.144659 2.582846 4.855832 -55.996988 -0.000002 0.000001 -0.000002 2.320326 7.123398 -41.324721 3.980455 5.544966 -71.324735 -0.000000 0.000003 0.000001 2.334062 7.133197 -41.503747 3.985980 5.546828 -71.381829 -0.000001 0.000002 -0.000001 2.340557 7.146620 -41.312153 3.983163 5.545889 -71.352746 -0.000000 -0.000001 0.000001 0.000001 0.000002 -0.000001 1.124653 -7.724696 11.847041 3.010281 18.678489 60.639772 -0.000002 22.673025 0.000010 2.953357 -2.354779 -0.380940 -5.113525 0.222631 -17.981433 16.974256 -29.891271 7.722241 -0.000000 -0.000001 0.000001 0.293265 -3.768019 14.855207 3.744275 -4.567004 78.683807 0.000001 -0.000000 0.000002 1.476678 -5.897274 31.989669 4.665305 -4.657159 90.100215 -0.000001 -0.000000 -0.000001 1.445851 -5.834036 32.330926 4.654587 -4.657176 89.968099 0.000001 0.000001 -0.000003 1.440912 -5.877521 32.424267 4.654598 -4.657174 89.968174 0.000000 0.000002 0.000001 0.000001 -0.000000 0.000000 -0.000000 0.000000 0.000000 0.000001 0.000000 0.000000 -0.000000 0.000000 0.000000 -0.000000 0.000000 0.000000 -0.000000 0.000000 0.000000 0.000001 0.000000 0.000000 -0.000000 0.000000 0.000000 -0.000000 0.000000 0.000000 -0.000000 0.000000 0.000000 0.000001 0.000000 0.000000 -0.000000 -0.000000 0.000000 -0.000000 -0.000000 0.000000 -0.000000 -0.000000 0.000000 
1.244466 69.947548 1.400121 2.120592 -0.035029 -0.277397 -0.000000 0.000000 0.000000 -6.825001 -3.404725 8.897570 17.136303 -0.947709 -1.881755 -11.077738 11.372095 -6.963651 0.000000 -0.000000 0.000000 0.000000 -0.000000 -0.000000 -4.380870 -5.233353 -9.518763 14.324249 0.714371 -0.277882 -10.464611 -11.626474 8.787376 -0.000000 -0.000000 -0.000000 0.000000 -0.000001 -0.000000 2.559921 -0.101595 0.873728 3.232090 -0.112856 0.163210 3.232567 -0.093704 0.158966 -3.332028 0.010478 -0.020364 -2.078845 -0.125606 0.557600 -0.000000 0.000000 -0.000000 -0.000000 0.000000 -0.000000 -0.000000 0.000000 -0.000000 -0.000000 0.000000 -0.000000 -0.000000 0.000000 -0.000000 -0.000000 0.000000 -0.000000 -0.000000 0.000000 -0.000000 -0.000000 0.000000 -0.000000 -0.000000 0.000000 -0.000000 0.723531 7.984865 -13.048745 9.926437 -6.917192 -54.675299 0.000003 -32.712867 0.000005 5.229925 -1.618801 -4.895273 -3.935388 -5.157153 8.901475 21.369789 38.859115 0.033480 0.000001 0.000002 -0.000000 1.240177 5.550755 -31.144659 2.582844 4.855834 -55.996995 0.000001 0.000000 -0.000002 2.320316 7.123396 -41.324707 3.981384 5.545280 -71.334325 -0.000000 0.000001 0.000001 2.343393 7.140135 -41.615578 3.989632 5.548058 -71.419641 0.000001 0.000003 -0.000001 2.340563 7.146617 -41.312140 3.983164 5.545882 -71.352746 0.000000 -0.000002 0.000002 0.000000 -0.000001 0.000003 1.144755 -7.400145 12.089766 2.794422 18.583895 60.286562 0.000004 22.219835 -0.000018 3.851657 -2.017861 0.124931 -5.113518 0.222630 -17.981443 16.974253 -29.891274 7.722248 -0.000003 -0.000002 -0.000000 0.293269 -3.768019 14.855178 3.728243 -4.563771 78.482336 -0.000002 -0.000002 -0.000000 1.476688 -5.897278 31.989652 4.671016 -4.657141 90.170457 -0.000000 0.000001 0.000001 1.455362 -5.842703 32.483922 4.654583 -4.657177 89.968058 0.000001 -0.000002 -0.000002 1.449678 -5.891542 32.626379 4.654595 -4.657175 89.968194 0.000001 0.000003 -0.000001 0.000001 0.000001 -0.000001 -0.000000 0.000000 0.000000 -0.000000 0.000000 0.000000 -0.000000 0.000000 0.000000 -0.000000 0.000000 0.000000 -0.000000 0.000000 0.000000 -0.000000 0.000000 0.000000 -0.000000 0.000000 0.000000 -0.000000 0.000000 0.000000 -0.000000 0.000000 0.000000 -0.000000 0.000000 0.000000 -0.000000 0.000000 0.000000 -0.000000 0.000000 0.000000 -0.000000 0.000000 0.000000 
1.668333 69.889656 1.358472 2.192157 -0.132506 -0.273758 -0.000000 0.000000 0.000000 -7.621499 -3.022910 8.686749 18.294928 -1.231547 -1.997726 -11.764193 10.160593 -6.535614 -0.000000 -0.000000 -0.000000 0.000000 0.000000 -0.000001 -4.507321 -5.185576 -9.943053 14.214093 0.809395 -0.277871 -10.216064 -11.633906 9.180352 0.000000 -0.000001 -0.000000 0.000000 0.000000 0.000001 2.733334 -0.231486 0.836719 3.162677 -0.145142 0.154605 3.163293 -0.126561 0.150962 -3.268993 0.018849 -0.018577 -1.887780 -0.058102 0.630192 -0.000000 -0.000000 -0.000000 -0.000000 -0.000000 -0.000000 -0.000000 -0.000000 -0.000000 -0.000000 -0.000000 -0.000000 -0.000000 0.000000 -0.000000 -0.000000 -0.000000 -0.000000 -0.000000 0.000000 -0.000000 -0.000000 -0.000000 -0.000000 -0.000000 -0.000000 -0.000000 0.717566 7.653005 -13.047676 9.666120 -7.152680 -54.905500 -0.000001 -32.583213 0.000012 5.924524 -1.655671 -5.127136 -3.935394 -5.157153 8.901445 21.369780 38.859115 0.033499 0.000002 -0.000000 -0.000004 1.240183 5.550756 -31.144652 2.582841 4.855835 -55.997005 0.000001 0.000002 0.000002 2.320325 7.123391 -41.324700 3.982396 5.545619 -71.344714 0.000002 0.000000 -0.000001 2.352918 7.147187 -41.729478 3.993348 5.549301 -71.458081 -0.000001 0.000004 -0.000000 2.340561 7.146616 -41.312146 3.983168 5.545881 -71.352746 -0.000000 -0.000001 0.000001 0.000000 -0.000002 -0.000002 1.162522 -7.068631 12.335778 2.566469 18.497474 59.924214 -0.000002 21.753118 0.000005 4.758070 -1.657848 0.624858 -5.113516 0.222627 -17.981467 16.974265 -29.891268 7.722267 -0.000002 0.000001 0.000001 0.293268 -3.768023 14.855178 3.712079 -4.560451 78.279111 0.000000 0.000002 0.000004 1.476688 -5.897273 31.989645 4.676902 -4.657123 90.243027 -0.000001 -0.000000 -0.000001 1.465076 -5.851496 32.639736 4.654575 -4.657174 89.968058 0.000001 0.000001 -0.000000 1.458654 -5.905794 32.832187 4.654589 -4.657172 89.968181 -0.000001 0.000001 0.000001 0.000002 -0.000000 -0.000000 0.000000 -0.000000 -0.000000 0.000000 0.000000 -0.000000 0.000000 -0.000000 -0.000000 0.000000 -0.000000 -0.000000 0.000000 -0.000000 -0.000000 0.000000 0.000000 -0.000000 0.000000 -0.000000 -0.000000 0.000000 -0.000000 -0.000000 0.000000 -0.000000 -0.000000 0.000000 0.000000 -0.000000 -0.000000 0.000000 0.000000 -0.000000 0.000000 0.000000 -0.000000 0.000000 0.000000 
